<svg width="20" height="27" viewBox="0 0 20 27" fill="none" xmlns="http://www.w3.org/2000/svg">
<path d="M16.28 10.1655V8.478C16.28 4.833 15.63 0 10 0C4.37 0 3.72 4.833 3.72 8.478V10.1655C0.92 10.638 0 12.555 0 17.2665V19.7775C0 25.3125 1.25 27 5.35 27H14.65C18.75 27 20 25.3125 20 19.7775V17.2665C20 12.555 19.08 10.638 16.28 10.1655ZM10 22.599C8.33 22.599 6.98 20.763 6.98 18.522C6.98 16.2675 8.34 14.445 10 14.445C11.66 14.445 13.02 16.281 13.02 18.522C13.02 20.7765 11.67 22.599 10 22.599ZM5.35 10.044C5.27 10.044 5.2 10.044 5.12 10.044V8.478C5.12 4.5225 5.95 1.89 10 1.89C14.05 1.89 14.88 4.5225 14.88 8.478V10.0575C14.8 10.0575 14.73 10.0575 14.65 10.0575H5.35V10.044Z" fill="#BFBFBF"/>
</svg>
